<svg width="128" height="128" xmlns="http://www.w3.org/2000/svg"><rect width="100%" height="100%" fill="#f0f0f0"/><circle cx="56" cy="8" r="8" fill="#0000ff"/><circle cx="72" cy="8" r="8" fill="#0000ff"/><circle cx="104" cy="8" r="8" fill="#0000ff"/><circle cx="120" cy="8" r="8" fill="#0000ff"/><circle cx="24" cy="24" r="8" fill="#0000ff"/><circle cx="40" cy="24" r="8" fill="#0000ff"/><circle cx="88" cy="24" r="8" fill="#0000ff"/><circle cx="120" cy="24" r="8" fill="#0000ff"/><circle cx="24" cy="40" r="8" fill="#0000ff"/><circle cx="40" cy="40" r="8" fill="#0000ff"/><circle cx="56" cy="40" r="8" fill="#0000ff"/><circle cx="104" cy="40" r="8" fill="#0000ff"/><circle cx="120" cy="40" r="8" fill="#0000ff"/><circle cx="24" cy="56" r="8" fill="#0000ff"/><circle cx="40" cy="56" r="8" fill="#0000ff"/><circle cx="72" cy="56" r="8" fill="#0000ff"/><circle cx="120" cy="56" r="8" fill="#0000ff"/><circle cx="56" cy="72" r="8" fill="#0000ff"/><circle cx="72" cy="72" r="8" fill="#0000ff"/><circle cx="104" cy="72" r="8" fill="#0000ff"/><circle cx="120" cy="72" r="8" fill="#0000ff"/><circle cx="24" cy="88" r="8" fill="#0000ff"/><circle cx="40" cy="88" r="8" fill="#0000ff"/><circle cx="88" cy="88" r="8" fill="#0000ff"/><circle cx="120" cy="88" r="8" fill="#0000ff"/><circle cx="24" cy="104" r="8" fill="#0000ff"/><circle cx="40" cy="104" r="8" fill="#0000ff"/><circle cx="56" cy="104" r="8" fill="#0000ff"/><circle cx="104" cy="104" r="8" fill="#0000ff"/><circle cx="120" cy="104" r="8" fill="#0000ff"/><circle cx="24" cy="120" r="8" fill="#0000ff"/><circle cx="40" cy="120" r="8" fill="#0000ff"/><circle cx="72" cy="120" r="8" fill="#0000ff"/><circle cx="120" cy="120" r="8" fill="#0000ff"/></svg>